<svg width="60" height="60" viewBox="0 0 60 60" fill="none" xmlns="http://www.w3.org/2000/svg">
<path d="M24.2143 18.5149C25.2345 18.6892 24.9508 20.1132 23.9306 19.9389C15.8385 18.5466 10.1691 21.5074 14.4611 28.8388C14.9741 29.6714 13.6132 30.39 13.1003 29.5574C7.98986 21.2688 14.6166 16.8322 24.2143 18.5149V18.5149ZM44.6228 32.5737C51.8565 24.384 48.6709 18.2936 39.9733 18.194C38.9403 18.1815 38.9212 19.6293 39.9542 19.6418C47.6531 19.6113 49.4848 24.8843 43.4244 31.6408C42.7565 32.3927 43.9798 33.2881 44.6228 32.5736V32.5737ZM37.0139 45.419C37.5426 44.6064 36.2263 43.849 35.6719 44.6707C31.2955 51.0824 25.9461 49.107 22.7085 41.3755C22.3585 40.4545 20.8804 40.936 21.2304 41.857C24.0946 49.9562 31.6903 53.5244 37.0139 45.4191V45.419ZM32.2201 30.9966C32.2201 29.4345 30.381 28.4528 28.9176 29.2339C27.4541 30.015 27.4541 31.9784 28.9176 32.7595C30.381 33.5406 32.2201 32.5589 32.2201 30.9966ZM12.9935 37.5779C13.2485 31.142 23.3745 22.9328 35.3157 20.108C36.341 19.9017 36.0088 18.4867 34.9834 18.6931C23.9539 20.9539 10.8692 30.0314 11.4192 37.9759C9.50741 39.0441 9.52732 41.6368 11.4778 42.6741C13.4479 43.7219 15.9237 42.4052 15.9237 40.3098C15.9237 38.7348 14.5249 37.5997 12.9935 37.578V37.5779ZM45.4218 42.5959C46.8297 43.444 48.8659 43.0556 49.6877 41.5334C50.6993 39.6598 49.1211 37.4578 46.8537 37.5794C44.7251 37.6935 43.4718 39.7768 44.3658 41.4809C37.4883 44.2512 24.7135 39.6159 17.2025 32.2477C16.5151 31.5456 15.3549 32.5191 16.0422 33.2213C23.1662 40.5145 37.6416 46.4119 45.4218 42.5959ZM32.9812 12.7288C32.9819 10.9374 31.0488 9.54807 29.0914 10.1374C26.9316 10.7878 26.3475 13.3639 28.0425 14.7635C29.4686 15.9409 31.6158 15.549 32.5383 14.1745C37.8826 17.4456 41.1989 28.6246 37.6652 40.4562C37.3596 41.3721 38.857 41.8005 39.1626 40.8846C42.3736 31.282 40.6365 17.0617 32.9812 12.7287V12.7288Z" fill="#A62626"/>
<rect x="1.5" y="1.5" width="57" height="57" rx="1.5" stroke="#A62626" stroke-width="3"/>
</svg>
