<svg width="60" height="60" viewBox="0 0 60 60" fill="none" xmlns="http://www.w3.org/2000/svg">
<rect x="1.5" y="1.5" width="57" height="57" rx="1.5" stroke="#37847A" stroke-width="3"/>
<g clip-path="url(#clip0)">
<path d="M36.6928 33.965C36.6928 33.4312 36.4641 33.1387 36.1191 32.93C35.7678 32.7287 35.3441 32.7012 34.7641 32.7012H32.1928V37.4012H33.3191V35.69H34.5241C34.9203 35.69 35.1691 35.73 35.3178 35.8987C35.5191 36.1137 35.4941 36.53 35.4941 36.8175V37.3975H36.5878V36.4725C36.5878 36.0562 36.5628 35.8475 36.4128 35.6125C36.2656 35.4362 36.0747 35.3017 35.8591 35.2225L35.8903 35.2087C36.1966 35.0925 36.6916 34.7137 36.6916 33.965H36.6928ZM35.2403 34.6412L35.1941 34.635C35.0441 34.7262 34.8691 34.7337 34.6403 34.7337H33.2941V33.685H34.6678C34.8691 33.685 35.0641 33.685 35.2216 33.77C35.3 33.8082 35.3653 33.869 35.4092 33.9444C35.453 34.0199 35.4734 34.1067 35.4678 34.1937C35.4678 34.395 35.3891 34.55 35.2466 34.6425L35.2403 34.6412ZM43.8278 36.3937H41.6666V37.3975H43.8416C44.9666 37.3975 45.5916 36.9337 45.5916 35.9262C45.5916 35.4562 45.4816 35.1762 45.2803 34.9562C45.0266 34.735 44.6216 34.63 44.0641 34.6112L43.4378 34.585C43.2628 34.585 43.1391 34.585 43.0091 34.5337C42.9349 34.5105 42.8703 34.4636 42.8254 34.4001C42.7805 34.3367 42.7576 34.2602 42.7603 34.1825C42.7603 34.0325 42.7866 33.9087 42.9103 33.8375C43.0494 33.76 43.2076 33.7236 43.3666 33.7325H45.4103V32.7312H43.1641C41.9928 32.7312 41.5691 33.46 41.5691 34.1312C41.5691 35.635 42.8591 35.5562 43.9141 35.5825C44.0828 35.5825 44.2128 35.6075 44.2841 35.6787C44.3628 35.7325 44.4203 35.855 44.4203 35.9787C44.4203 36.1087 44.3616 36.2325 44.2903 36.2787C44.1941 36.3687 44.0441 36.395 43.8291 36.395L43.8278 36.3937ZM9.99908 10V26.83L11.3478 23.6987H14.2641L14.6403 24.4737V23.6987H18.0453L18.7941 25.3975L19.5241 23.7125H30.3641C30.8528 23.7125 31.2941 23.8087 31.6203 24.1087V23.7237H34.6016V24.1087C35.1078 23.8225 35.7403 23.7237 36.4628 23.7237H40.8041L41.2091 24.4987V23.7237H44.4053L44.8266 24.4987V23.7175H47.9266V30.3012H44.7816L44.1828 29.2975V30.2737H40.2566L39.8328 29.225H38.8566L38.4078 30.2462H36.3891C35.5878 30.2462 34.9891 30.0775 34.5853 29.85V30.2462H29.7666V28.7762C29.7666 28.575 29.7216 28.575 29.5978 28.5475H29.4216V30.2725H20.1053V29.4787L19.7541 30.2725H17.8141L17.4753 29.4787V30.2525H13.7191L13.2953 29.2112H12.3253L11.9041 30.2525H9.99533V49.9987H49.6366V38.15C49.1878 38.3762 48.6153 38.4487 48.0153 38.4487H45.1453V38.025C44.7941 38.2987 44.1953 38.4487 43.6216 38.4487H34.5128V36.9525C34.5128 36.7512 34.4791 36.7512 34.3116 36.7512H34.1878V38.4562H31.1866V36.68C30.6916 36.9087 30.1116 36.9262 29.6366 36.9087H29.2853V38.4325H25.6541L24.7491 37.4025L23.7978 38.4062H17.8991V31.8562H23.9153L24.7803 32.86L25.7053 31.8562H29.7216C30.1903 31.8562 30.9516 31.91 31.2903 32.235V31.8312H34.9166C35.2553 31.8312 35.9916 31.91 36.4266 32.2075V31.8112H41.8628V32.2075C42.1366 31.9337 42.7166 31.8112 43.2041 31.8112H46.3541V32.2075C46.6803 31.9612 47.1291 31.8112 47.7541 31.8112H49.7141V10.0012L9.99908 10ZM45.2591 34.9212C45.2653 34.935 45.2653 34.9475 45.2728 34.955C45.2928 34.9662 45.3178 34.9662 45.3316 34.9862L45.2603 34.9275L45.2591 34.9212ZM49.7128 31.8037H49.8241V32.7287H49.7128V31.8037ZM49.7703 35.0512V35.0375C49.7253 34.9987 49.6991 34.9612 49.6466 34.9212C49.4003 34.6675 48.9953 34.5625 48.3766 34.55L47.7716 34.5312C47.5766 34.5312 47.4528 34.5175 47.3228 34.48C47.2487 34.4566 47.1843 34.4096 47.1394 34.3462C47.0945 34.2828 47.0716 34.2064 47.0741 34.1287C47.0741 33.9787 47.1253 33.86 47.2241 33.7887C47.3478 33.7175 47.4703 33.705 47.6728 33.705H49.7116V32.7287H47.5766C46.4228 32.7287 45.9753 33.4575 45.9753 34.1287C45.9753 35.625 47.2766 35.5537 48.3253 35.58C48.5016 35.58 48.6253 35.5987 48.6966 35.6762C48.7753 35.73 48.8266 35.8525 48.8266 35.9762C48.8256 36.0343 48.8117 36.0914 48.7857 36.1433C48.7598 36.1952 48.7225 36.2407 48.6766 36.2762C48.5978 36.3662 48.4478 36.3925 48.2278 36.3925H46.0778V37.4012H48.2216C48.9228 37.4012 49.4453 37.2062 49.7253 36.8025H49.7703C49.9203 36.5737 49.9991 36.3012 49.9991 35.9312C49.9991 35.5262 49.9203 35.28 49.7703 35.0512ZM40.9953 33.6787V32.7087H37.2703V37.4287H40.9953V36.4525H38.3766V35.5087H40.9303V34.5325H38.3766V33.6862L40.9953 33.6787ZM32.5191 24.6412H33.6578V29.3362H32.5191V24.6412ZM31.8741 25.905L31.8603 25.9187C31.8603 25.39 31.6453 25.085 31.2941 24.8775C30.9353 24.6687 30.5141 24.6487 29.9478 24.6487H27.3828V29.3487H28.5078V27.6237H29.7066C30.1028 27.6237 30.3578 27.675 30.5203 27.825C30.7241 28.0537 30.6966 28.4562 30.6966 28.7362V29.33H31.8228V28.4112C31.8228 27.995 31.7966 27.7862 31.6391 27.545C31.4925 27.3713 31.3047 27.2372 31.0928 27.155C31.3336 27.0486 31.5372 26.8728 31.6777 26.6502C31.8182 26.4276 31.8892 26.1681 31.8816 25.905H31.8741ZM30.4491 26.5637H30.4291C30.2728 26.6537 30.1028 26.66 29.8753 26.66H28.5016V25.6187H29.8753C30.0766 25.6187 30.2716 25.625 30.4216 25.7037C30.5716 25.7687 30.6753 25.9187 30.6753 26.12C30.6753 26.3212 30.5966 26.485 30.4491 26.5637ZM36.5353 25.6187H37.5841V24.6225H36.5091C35.7403 24.6225 35.1741 24.7987 34.8103 25.1712C34.3353 25.6712 34.2103 26.3225 34.2103 27.0262C34.2103 27.88 34.4116 28.4125 34.8103 28.81C35.1941 29.2062 35.8841 29.3312 36.4241 29.3312H37.7278L38.1516 28.2825H40.4678L40.9041 29.3312H43.1691V25.815L45.2928 29.3312H46.8816V24.6425H45.7353V27.9175L43.7703 24.6487H42.0703V28.9975L40.1816 24.5712H38.5078L36.9391 28.2762H36.4378C36.1466 28.2762 35.8328 28.225 35.6578 28.0475C35.4491 27.8012 35.3516 27.4487 35.3516 26.9475C35.3516 26.4725 35.4816 26.0937 35.6703 25.8987C35.8916 25.67 36.1266 25.6187 36.5303 25.6187H36.5353ZM39.3153 25.4437L40.0841 27.305V27.3112H38.5341L39.3153 25.4437ZM13.9641 28.2812L14.3878 29.33H16.6666V25.6587L18.2878 29.33H19.2578L20.8778 25.6587L20.9041 29.33H22.0553V24.6487H20.1941L18.8528 27.8187L17.3891 24.6425H15.5728V29.0825L13.6716 24.6425H12.0116L10.0203 29.3312H11.2166L11.6466 28.29H13.9653L13.9641 28.2812ZM12.8178 25.4437L13.5866 27.305L13.5803 27.3112H12.0566L12.8178 25.4437ZM29.7578 32.7012H26.1916L24.7716 34.2375L23.3978 32.7012H18.9128V37.4012H23.3328L24.7578 35.8462L26.1328 37.3962H28.2991V35.8325H29.6991C30.6953 35.8325 31.6453 35.5587 31.6453 34.2575L31.6391 34.2512C31.6391 32.95 30.6441 32.7012 29.7578 32.7012ZM22.7853 36.42H20.0316V35.4887H22.4778V34.5325H20.0316V33.6862H22.8303L24.0553 35.0525L22.7791 36.4262L22.7853 36.42ZM27.1853 36.9737L25.4666 35.0587L27.1853 33.2175V36.9737ZM29.7703 34.8762H28.2991V33.6775H29.7703C30.1741 33.6775 30.4741 33.8412 30.4741 34.2512C30.4741 34.6612 30.2278 34.8762 29.7703 34.8762ZM26.6141 25.6187V24.6425H22.8828V29.3375H26.6141V28.3675H23.9953V27.4287H26.5416V26.465H23.9953V25.6187H26.6141Z" fill="#37847A"/>
</g>
<defs>
<clipPath id="clip0">
<rect x="10" y="10" width="40" height="40" rx="10" fill="white"/>
</clipPath>
</defs>
</svg>
