<svg width="369" height="46" viewBox="0 0 369 46" fill="none" xmlns="http://www.w3.org/2000/svg">
<g clip-path="url(#clip0)">
<path d="M288.693 26.965C288.693 26.4312 288.464 26.1387 288.119 25.93C287.768 25.7287 287.344 25.7012 286.764 25.7012H284.193V30.4012H285.319V28.69H286.524C286.92 28.69 287.169 28.73 287.318 28.8987C287.519 29.1137 287.494 29.53 287.494 29.8175V30.3975H288.588V29.4725C288.588 29.0562 288.563 28.8475 288.413 28.6125C288.266 28.4362 288.075 28.3017 287.859 28.2225L287.89 28.2087C288.197 28.0925 288.692 27.7137 288.692 26.965H288.693ZM287.24 27.6412L287.194 27.635C287.044 27.7262 286.869 27.7337 286.64 27.7337H285.294V26.685H286.668C286.869 26.685 287.064 26.685 287.222 26.77C287.3 26.8082 287.365 26.869 287.409 26.9444C287.453 27.0199 287.473 27.1067 287.468 27.1937C287.468 27.395 287.389 27.55 287.247 27.6425L287.24 27.6412ZM295.828 29.3937H293.667V30.3975H295.842C296.967 30.3975 297.592 29.9337 297.592 28.9262C297.592 28.4562 297.482 28.1762 297.28 27.9562C297.027 27.735 296.622 27.63 296.064 27.6112L295.438 27.585C295.263 27.585 295.139 27.585 295.009 27.5337C294.935 27.5105 294.87 27.4636 294.825 27.4001C294.78 27.3367 294.758 27.2602 294.76 27.1825C294.76 27.0325 294.787 26.9087 294.91 26.8375C295.049 26.76 295.208 26.7236 295.367 26.7325H297.41V25.7312H295.164C293.993 25.7312 293.569 26.46 293.569 27.1312C293.569 28.635 294.859 28.5562 295.914 28.5825C296.083 28.5825 296.213 28.6075 296.284 28.6787C296.363 28.7325 296.42 28.855 296.42 28.9787C296.42 29.1087 296.362 29.2325 296.29 29.2787C296.194 29.3687 296.044 29.395 295.829 29.395L295.828 29.3937ZM261.999 3V19.83L263.348 16.6987H266.264L266.64 17.4737V16.6987H270.045L270.794 18.3975L271.524 16.7125H282.364C282.853 16.7125 283.294 16.8087 283.62 17.1087V16.7237H286.602V17.1087C287.108 16.8225 287.74 16.7237 288.463 16.7237H292.804L293.209 17.4987V16.7237H296.405L296.827 17.4987V16.7175H299.927V23.3012H296.782L296.183 22.2975V23.2737H292.257L291.833 22.225H290.857L290.408 23.2462H288.389C287.588 23.2462 286.989 23.0775 286.585 22.85V23.2462H281.767V21.7762C281.767 21.575 281.722 21.575 281.598 21.5475H281.422V23.2725H272.105V22.4787L271.754 23.2725H269.814L269.475 22.4787V23.2525H265.719L265.295 22.2112H264.325L263.904 23.2525H261.995V42.9987H301.637V31.15C301.188 31.3762 300.615 31.4487 300.015 31.4487H297.145V31.025C296.794 31.2987 296.195 31.4487 295.622 31.4487H286.513V29.9525C286.513 29.7512 286.479 29.7512 286.312 29.7512H286.188V31.4562H283.187V29.68C282.692 29.9087 282.112 29.9262 281.637 29.9087H281.285V31.4325H277.654L276.749 30.4025L275.798 31.4062H269.899V24.8562H275.915L276.78 25.86L277.705 24.8562H281.722C282.19 24.8562 282.952 24.91 283.29 25.235V24.8312H286.917C287.255 24.8312 287.992 24.91 288.427 25.2075V24.8112H293.863V25.2075C294.137 24.9337 294.717 24.8112 295.204 24.8112H298.354V25.2075C298.68 24.9612 299.129 24.8112 299.754 24.8112H301.714V3.00125L261.999 3ZM297.259 27.9212C297.265 27.935 297.265 27.9475 297.273 27.955C297.293 27.9662 297.318 27.9662 297.332 27.9862L297.26 27.9275L297.259 27.9212ZM301.713 24.8037H301.824V25.7287H301.713V24.8037ZM301.77 28.0512V28.0375C301.725 27.9987 301.699 27.9612 301.647 27.9212C301.4 27.6675 300.995 27.5625 300.377 27.55L299.772 27.5312C299.577 27.5312 299.453 27.5175 299.323 27.48C299.249 27.4566 299.184 27.4096 299.139 27.3462C299.095 27.2828 299.072 27.2064 299.074 27.1287C299.074 26.9787 299.125 26.86 299.224 26.7887C299.348 26.7175 299.47 26.705 299.673 26.705H301.712V25.7287H299.577C298.423 25.7287 297.975 26.4575 297.975 27.1287C297.975 28.625 299.277 28.5537 300.325 28.58C300.502 28.58 300.625 28.5987 300.697 28.6762C300.775 28.73 300.827 28.8525 300.827 28.9762C300.826 29.0343 300.812 29.0914 300.786 29.1433C300.76 29.1952 300.722 29.2407 300.677 29.2762C300.598 29.3662 300.448 29.3925 300.228 29.3925H298.078V30.4012H300.222C300.923 30.4012 301.445 30.2062 301.725 29.8025H301.77C301.92 29.5737 301.999 29.3012 301.999 28.9312C301.999 28.5262 301.92 28.28 301.77 28.0512ZM292.995 26.6787V25.7087H289.27V30.4287H292.995V29.4525H290.377V28.5087H292.93V27.5325H290.377V26.6862L292.995 26.6787ZM284.519 17.6412H285.658V22.3362H284.519V17.6412ZM283.874 18.905L283.86 18.9187C283.86 18.39 283.645 18.085 283.294 17.8775C282.935 17.6687 282.514 17.6487 281.948 17.6487H279.383V22.3487H280.508V20.6237H281.707C282.103 20.6237 282.358 20.675 282.52 20.825C282.724 21.0537 282.697 21.4562 282.697 21.7362V22.33H283.823V21.4112C283.823 20.995 283.797 20.7862 283.639 20.545C283.493 20.3713 283.305 20.2372 283.093 20.155C283.334 20.0486 283.537 19.8728 283.678 19.6502C283.818 19.4276 283.889 19.1681 283.882 18.905H283.874ZM282.449 19.5637H282.429C282.273 19.6537 282.103 19.66 281.875 19.66H280.502V18.6187H281.875C282.077 18.6187 282.272 18.625 282.422 18.7037C282.572 18.7687 282.675 18.9187 282.675 19.12C282.675 19.3212 282.597 19.485 282.449 19.5637ZM288.535 18.6187H289.584V17.6225H288.509C287.74 17.6225 287.174 17.7987 286.81 18.1712C286.335 18.6712 286.21 19.3225 286.21 20.0262C286.21 20.88 286.412 21.4125 286.81 21.81C287.194 22.2062 287.884 22.3312 288.424 22.3312H289.728L290.152 21.2825H292.468L292.904 22.3312H295.169V18.815L297.293 22.3312H298.882V17.6425H297.735V20.9175L295.77 17.6487H294.07V21.9975L292.182 17.5712H290.508L288.939 21.2762H288.438C288.147 21.2762 287.833 21.225 287.658 21.0475C287.449 20.8012 287.352 20.4487 287.352 19.9475C287.352 19.4725 287.482 19.0937 287.67 18.8987C287.892 18.67 288.127 18.6187 288.53 18.6187H288.535ZM291.315 18.4437L292.084 20.305V20.3112H290.534L291.315 18.4437ZM265.964 21.2812L266.388 22.33H268.667V18.6587L270.288 22.33H271.258L272.878 18.6587L272.904 22.33H274.055V17.6487H272.194L270.853 20.8187L269.389 17.6425H267.573V22.0825L265.672 17.6425H264.012L262.02 22.3312H263.217L263.647 21.29H265.965L265.964 21.2812ZM264.818 18.4437L265.587 20.305L265.58 20.3112H264.057L264.818 18.4437ZM281.758 25.7012H278.192L276.772 27.2375L275.398 25.7012H270.913V30.4012H275.333L276.758 28.8462L278.133 30.3962H280.299V28.8325H281.699C282.695 28.8325 283.645 28.5587 283.645 27.2575L283.639 27.2512C283.639 25.95 282.644 25.7012 281.758 25.7012ZM274.785 29.42H272.032V28.4887H274.478V27.5325H272.032V26.6862H274.83L276.055 28.0525L274.779 29.4262L274.785 29.42ZM279.185 29.9737L277.467 28.0587L279.185 26.2175V29.9737ZM281.77 27.8762H280.299V26.6775H281.77C282.174 26.6775 282.474 26.8412 282.474 27.2512C282.474 27.6612 282.228 27.8762 281.77 27.8762ZM278.614 18.6187V17.6425H274.883V22.3375H278.614V21.3675H275.995V20.4287H278.542V19.465H275.995V18.6187H278.614Z" fill="#EFEFEF"/>
</g>
<path fill-rule="evenodd" clip-rule="evenodd" d="M220.527 45.8965L218.635 45.4789C218.635 45.4789 218.866 39.2504 215.405 38.8034C213.099 37.0747 215.775 -34.5117 224.08 38.5648C224.08 38.5648 221.219 39.4884 220.712 41.0683C220.158 42.6182 220.527 45.8965 220.527 45.8965Z" fill="white"/>
<path fill-rule="evenodd" clip-rule="evenodd" d="M220.527 45.8965L218.635 45.4789C218.635 45.4789 218.866 39.2504 215.405 38.8034C213.099 37.0747 215.775 -34.5117 224.08 38.5648C224.08 38.5648 221.219 39.4884 220.712 41.0683C220.158 42.6182 220.527 45.8965 220.527 45.8965Z" fill="#A6A385"/>
<path fill-rule="evenodd" clip-rule="evenodd" d="M221.542 39.8763C221.542 39.8763 238.107 32.8427 234.231 18.2092C230.494 7.57009 221.681 4.08314 220.712 2.74191C219.651 1.78822 218.635 0.119507 218.635 0.119507L219.328 29.7132C219.328 29.7433 217.897 38.7734 221.543 39.8766" fill="white"/>
<path fill-rule="evenodd" clip-rule="evenodd" d="M221.542 40.5898C221.542 40.5898 238.107 33.4299 234.231 18.5338C230.494 7.7038 221.681 4.15427 220.712 2.78897C219.651 1.81816 218.635 0.119507 218.635 0.119507L219.328 30.2443C219.328 30.2749 217.897 39.4671 221.543 40.5901" fill="#499D4A"/>
<path fill-rule="evenodd" clip-rule="evenodd" d="M217.667 40.2635C217.667 40.2635 202.117 33.4088 203.04 21.339C203.916 9.26882 214.898 3.33807 217.02 2.26521C218.405 1.31152 218.451 0.953688 218.543 0C219.512 1.34123 219.328 20.0575 219.466 22.2626C219.881 30.7564 218.728 38.6546 217.667 40.2635Z" fill="white"/>
<path fill-rule="evenodd" clip-rule="evenodd" d="M217.667 40.4706C217.667 40.4706 202.117 33.5806 203.04 21.4487C203.916 9.31649 214.898 3.35524 217.02 2.27686C218.405 1.31827 218.451 0.958593 218.543 0C219.512 1.34813 219.328 20.1606 219.466 22.3771C219.881 30.9145 218.728 38.8534 217.667 40.4706Z" fill="#58AA50"/>
<path d="M156 27.0925C157.726 27.0925 159.125 25.6934 159.125 23.9675C159.125 22.2416 157.726 20.8425 156 20.8425C154.274 20.8425 152.875 22.2416 152.875 23.9675C152.875 25.6934 154.274 27.0925 156 27.0925Z" fill="#EFEFEF"/>
<path d="M156 31.1325C152.244 31.2234 148.497 30.7171 144.9 29.6325C143.238 29.1058 141.688 28.276 140.329 27.185C139.81 26.8123 139.378 26.3318 139.062 25.7765C138.747 25.2211 138.555 24.604 138.5 23.9675C138.5 21.9013 140.77 19.8763 144.572 18.5513C148.266 17.3772 152.125 16.8082 156 16.8663C159.823 16.8129 163.631 17.3716 167.278 18.5213C168.878 19.0315 170.375 19.8212 171.7 20.8538C172.21 21.2091 172.636 21.6722 172.947 22.2103C173.258 22.7484 173.447 23.3483 173.5 23.9675C173.5 26.115 170.963 28.2913 166.875 29.6438C163.347 30.693 159.68 31.1951 156 31.1325ZM156 18.3613C152.293 18.3117 148.601 18.8527 145.064 19.9638C141.564 21.185 139.995 22.855 139.995 23.9638C139.995 25.1238 141.681 26.9475 145.384 28.2138C148.825 29.2461 152.408 29.7266 156 29.6375C159.521 29.7005 163.03 29.2241 166.406 28.225C170.25 26.9513 172 25.125 172 23.9675C171.937 23.5703 171.792 23.1905 171.575 22.8521C171.358 22.5136 171.072 22.2239 170.738 22.0013C169.552 21.0852 168.215 20.3853 166.786 19.9338C163.298 18.8385 159.656 18.3076 156 18.3613Z" fill="#EFEFEF"/>
<path d="M148.9 39.5537C148.317 39.5671 147.741 39.4256 147.23 39.1437C145.44 38.1112 144.82 35.1337 145.571 31.1775C146.4 27.3913 147.835 23.7641 149.821 20.4362C151.685 17.0976 154.07 14.0786 156.887 11.4937C158.129 10.3621 159.561 9.4594 161.118 8.82747C161.68 8.56364 162.295 8.42688 162.916 8.42688C163.538 8.42688 164.152 8.56364 164.715 8.82747C166.576 9.89997 167.193 13.185 166.324 17.4012C165.47 20.9819 164.072 24.4105 162.179 27.5675C160.381 30.8667 158.07 33.8594 155.334 36.4337C154.047 37.6097 152.554 38.5374 150.93 39.17C150.28 39.4113 149.593 39.541 148.9 39.5537ZM151.116 21.1787C149.221 24.3654 147.846 27.8334 147.041 31.4525C146.35 35.0962 147.014 37.2875 147.979 37.845C148.979 38.4237 151.406 37.875 154.354 35.3C156.966 32.8337 159.172 29.969 160.888 26.8125C162.701 23.7944 164.042 20.5164 164.864 17.0925C165.681 13.1237 164.975 10.6937 163.973 10.1162C163.597 9.97225 163.195 9.9078 162.793 9.92695C162.391 9.9461 161.998 10.0484 161.638 10.2275C160.252 10.7991 158.978 11.6108 157.875 12.625C155.183 15.101 152.905 17.9911 151.125 21.1862L151.116 21.1787Z" fill="#EFEFEF"/>
<path d="M163.096 39.57C161.403 39.57 159.251 38.545 157.011 36.6187C154.145 34.0103 151.719 30.9555 149.828 27.5725C147.866 24.2904 146.442 20.7157 145.61 16.9837C145.249 15.3418 145.182 13.649 145.413 11.9837C145.466 11.366 145.654 10.7674 145.964 10.2303C146.273 9.69317 146.697 9.23051 147.205 8.87497C149.064 7.79872 152.218 8.90497 155.436 11.7625C158.112 14.2902 160.384 17.2134 162.174 20.43C164.134 23.6354 165.573 27.1319 166.436 30.7887C166.813 32.4909 166.871 34.248 166.608 35.9712C166.545 36.6067 166.346 37.2212 166.023 37.7724C165.701 38.3237 165.263 38.7987 164.74 39.165C164.238 39.4434 163.67 39.5832 163.096 39.57ZM151.121 26.82C152.936 30.053 155.253 32.9767 157.986 35.4812C160.798 37.9 163.028 38.42 163.986 37.8562C164.986 37.275 165.724 34.9025 164.964 31.0637C164.131 27.5724 162.751 24.2349 160.875 21.175C159.167 18.0964 156.998 15.2973 154.444 12.875C151.414 10.185 148.956 9.58372 147.955 10.1637C147.643 10.4173 147.387 10.7329 147.203 11.0905C147.019 11.448 146.911 11.8399 146.886 12.2412C146.688 13.7263 146.752 15.2349 147.078 16.6975C147.878 20.2664 149.243 23.6845 151.123 26.8225L151.121 26.82Z" fill="#EFEFEF"/>
<path d="M88.9972 45.0004C88.3939 45.0004 87.7925 44.8604 87.2643 44.5888L81.7463 41.6938C80.9231 41.2854 81.3253 41.1404 81.596 41.0554C82.6954 40.7171 82.9172 40.6388 84.0919 40.0488C84.214 39.9871 84.3757 40.0104 84.5016 40.0771L88.7416 42.3088C88.8203 42.3458 88.9081 42.3652 88.9972 42.3652C89.0863 42.3652 89.1741 42.3458 89.2528 42.3088L105.782 33.8488C105.859 33.8076 105.923 33.7494 105.967 33.6799C106.011 33.6104 106.035 33.5319 106.034 33.4521V16.5354C106.034 16.4542 106.01 16.3744 105.965 16.3038C105.92 16.2331 105.855 16.174 105.777 16.1321L89.2547 7.67876C89.1768 7.64023 89.0892 7.62 89 7.62C88.9108 7.62 88.8232 7.64023 88.7453 7.67876L72.227 16.1338C72.1482 16.1752 72.0829 16.2339 72.0371 16.3043C71.9914 16.3746 71.9668 16.4542 71.9657 16.5354V33.4521C71.9661 33.5321 71.9905 33.6105 72.0364 33.6794C72.0823 33.7482 72.1481 33.805 72.227 33.8438L76.7545 36.1638C79.211 37.2538 80.7164 35.9704 80.7164 34.6804V17.9788C80.7164 17.7421 80.9306 17.5571 81.1975 17.5571H83.2931C83.5543 17.5571 83.7724 17.7438 83.7724 17.9788V34.6804C83.7724 37.5888 81.9869 39.2554 78.8783 39.2554C77.9236 39.2554 77.1699 39.2554 75.0706 38.3371L70.7328 36.1254C70.2056 35.8531 69.7681 35.463 69.464 34.9939C69.16 34.5248 69 33.9932 69 33.4521V16.5354C69 15.4371 69.6634 14.4104 70.7328 13.8638L87.2625 5.39376C87.7949 5.13541 88.3921 5 88.9991 5C89.606 5 90.2032 5.13541 90.7357 5.39376L107.263 13.8638C108.335 14.4121 109 15.4371 109 16.5354V33.4521C108.999 33.9934 108.838 34.5249 108.533 34.9939C108.229 35.463 107.791 35.8531 107.263 36.1254L90.7357 44.5888C90.2094 44.8604 89.6099 45.0004 88.9972 45.0004ZM102.343 28.3221C102.343 25.1554 99.9298 24.3121 94.8497 23.7171C89.717 23.1154 89.1945 22.8038 89.1945 21.7388C89.1945 20.8588 89.6362 19.6838 93.4383 19.6838C96.8344 19.6838 98.0861 20.3321 98.6011 22.3621C98.6245 22.4559 98.6833 22.5398 98.7676 22.6001C98.852 22.6604 98.957 22.6934 99.0653 22.6938H101.21C101.275 22.6932 101.34 22.6809 101.4 22.6577C101.46 22.6346 101.514 22.6009 101.559 22.5588C101.605 22.515 101.639 22.4634 101.661 22.4072C101.683 22.3509 101.691 22.2913 101.685 22.2321C101.353 18.7354 98.7327 17.1054 93.4383 17.1054C88.7247 17.1054 85.913 18.8688 85.913 21.8271C85.913 25.0354 88.7096 25.9221 93.2334 26.3188C98.6462 26.7888 99.0653 27.4904 99.0653 28.4338C99.0653 30.0721 97.5824 30.7704 94.0998 30.7704C89.7264 30.7704 88.7641 29.7971 88.4409 27.8671C88.4229 27.7669 88.3651 27.6756 88.2779 27.6099C88.1907 27.5442 88.0798 27.5083 87.9654 27.5088H85.8285C85.7658 27.5083 85.7036 27.5189 85.6456 27.5399C85.5876 27.5609 85.5349 27.592 85.4905 27.6312C85.4461 27.6704 85.4109 27.7171 85.3869 27.7684C85.363 27.8198 85.3508 27.8749 85.3511 27.9304C85.3511 30.4004 86.8659 33.3438 94.0998 33.3438C99.3397 33.3454 102.343 31.5171 102.343 28.3221Z" fill="#EFEFEF"/>
<path d="M343.214 8.51494C344.235 8.68924 343.951 10.1132 342.931 9.93892C334.838 8.54658 329.169 11.5074 333.461 18.8388C333.974 19.6714 332.613 20.39 332.1 19.5574C326.99 11.2688 333.617 6.83221 343.214 8.51486V8.51494ZM363.623 22.5737C370.857 14.384 367.671 8.29361 358.973 8.194C357.94 8.1815 357.921 9.62931 358.954 9.64181C366.653 9.61135 368.485 14.8843 362.424 21.6408C361.756 22.3927 362.98 23.2881 363.623 22.5736V22.5737ZM356.014 35.419C356.543 34.6064 355.226 33.849 354.672 34.6707C350.296 41.0824 344.946 39.107 341.709 31.3755C341.359 30.4545 339.88 30.936 340.23 31.857C343.095 39.9562 350.69 43.5244 356.014 35.4191V35.419ZM351.22 20.9966C351.22 19.4345 349.381 18.4528 347.918 19.2339C346.454 20.015 346.454 21.9784 347.918 22.7595C349.381 23.5406 351.22 22.5589 351.22 20.9966ZM331.994 27.5779C332.249 21.142 342.374 12.9328 354.316 10.108C355.341 9.90166 355.009 8.48674 353.983 8.69314C342.954 10.9539 329.869 20.0314 330.419 27.9759C328.507 29.0441 328.527 31.6368 330.478 32.6741C332.448 33.7219 334.924 32.4052 334.924 30.3098C334.924 28.7348 333.525 27.5997 331.994 27.578V27.5779ZM364.422 32.5959C365.83 33.444 367.866 33.0556 368.688 31.5334C369.699 29.6598 368.121 27.4578 365.854 27.5794C363.725 27.6935 362.472 29.7768 363.366 31.4809C356.488 34.2512 343.713 29.6159 336.202 22.2477C335.515 21.5456 334.355 22.5191 335.042 23.2213C342.166 30.5145 356.642 36.4119 364.422 32.5959ZM351.981 2.72877C351.982 0.937368 350.049 -0.451927 348.091 0.137369C345.932 0.787759 345.348 3.36393 347.043 4.76354C348.469 5.94088 350.616 5.54901 351.538 4.17447C356.883 7.44557 360.199 18.6246 356.665 30.4562C356.36 31.3721 357.857 31.8005 358.163 30.8846C361.374 21.282 359.637 7.06174 351.981 2.72869V2.72877Z" fill="white"/>
<path d="M42 4L37 39.1515L22 44L7 39.1515L2 4H42Z" stroke="#DFDBDA" stroke-width="3" stroke-linecap="round" stroke-linejoin="round"/>
<path d="M10.7805 14.2564H18.5853V32.7179L13.3821 30.4103" stroke="#DFDBDA" stroke-width="3" stroke-linecap="round" stroke-linejoin="round"/>
<path d="M33.2195 14.2564H26.7154C26.3704 14.2564 26.0396 14.378 25.7956 14.5944C25.5517 14.8107 25.4146 15.1042 25.4146 15.4103V22.3333C25.4146 22.6394 25.5517 22.9328 25.7956 23.1492C26.0396 23.3656 26.3704 23.4872 26.7154 23.4872H30.4175C30.6037 23.4872 30.7878 23.5227 30.9572 23.5912C31.1266 23.6598 31.2774 23.7598 31.3995 23.8845C31.5216 24.0092 31.6121 24.1557 31.6648 24.314C31.7176 24.4724 31.7314 24.639 31.7053 24.8026L30.6179 31.5641L25.4146 32.7179" stroke="#DFDBDA" stroke-width="3" stroke-linecap="round" stroke-linejoin="round"/>
<defs>
<clipPath id="clip0">
<rect x="262" y="3" width="40" height="40" rx="10" fill="white"/>
</clipPath>
</defs>
</svg>
