<svg width="60" height="60" viewBox="0 0 60 60" fill="none" xmlns="http://www.w3.org/2000/svg">
<path d="M46.5431 11C48.368 11 49.7702 12.6157 49.5132 14.4225L45.2639 44.2959C45.1024 45.4313 44.3078 46.3753 43.2165 46.728L30.9227 50.7018C30.3228 50.8956 29.6772 50.8956 29.0773 50.7018L16.7835 46.728C15.6922 46.3753 14.8976 45.4313 14.7361 44.2959L10.4868 14.4225C10.2298 12.6157 11.632 11 13.4569 11H46.5431Z" stroke="#AA3A9F" stroke-width="3" stroke-linecap="round" stroke-linejoin="round"/>
<path d="M18.7805 21.2564H23.5853C25.2422 21.2564 26.5853 22.5995 26.5853 24.2564V35.1056C26.5853 37.2756 24.3527 38.7277 22.3691 37.848L21.3821 37.4102" stroke="#AA3A9F" stroke-width="3" stroke-linecap="round" stroke-linejoin="round"/>
<path d="M41.2195 21.2564H34.7154C34.3704 21.2564 34.0396 21.378 33.7956 21.5943C33.5517 21.8107 33.4146 22.1042 33.4146 22.4102V29.3333C33.4146 29.6393 33.5517 29.9328 33.7956 30.1492C34.0396 30.3656 34.3704 30.4872 34.7154 30.4872H38.4175C38.6037 30.4872 38.7878 30.5227 38.9572 30.5912C39.1266 30.6597 39.2774 30.7597 39.3995 30.8844C39.5216 31.0091 39.6121 31.1556 39.6648 31.314C39.7176 31.4724 39.7314 31.639 39.7053 31.8025L38.9414 36.5527C38.7461 37.7669 37.8295 38.7389 36.6289 39.0051L33.4146 39.7179" stroke="#AA3A9F" stroke-width="3" stroke-linecap="round" stroke-linejoin="round"/>
<rect x="1.5" y="1.5" width="57" height="57" rx="1.5" stroke="#AA3A9F" stroke-width="3"/>
</svg>
