<svg width="60" height="60" viewBox="0 0 60 60" fill="none" xmlns="http://www.w3.org/2000/svg">
<rect x="1.5" y="1.5" width="57" height="57" rx="1.5" stroke="#499D4A" stroke-width="3"/>
<path fill-rule="evenodd" clip-rule="evenodd" d="M30.5265 54.8965L28.635 54.4789C28.635 54.4789 28.866 48.2504 25.405 47.8034C23.0985 46.0747 25.775 -25.5117 34.08 47.5648C34.08 47.5648 31.219 48.4884 30.7115 50.0683C30.1575 51.6182 30.5265 54.8965 30.5265 54.8965Z" fill="white"/>
<path fill-rule="evenodd" clip-rule="evenodd" d="M30.5265 54.8965L28.635 54.4789C28.635 54.4789 28.866 48.2504 25.405 47.8034C23.0985 46.0747 25.775 -25.5117 34.08 47.5648C34.08 47.5648 31.219 48.4884 30.7115 50.0683C30.1575 51.6182 30.5265 54.8965 30.5265 54.8965Z" fill="#499D4A"/>
<path fill-rule="evenodd" clip-rule="evenodd" d="M31.542 48.8763C31.542 48.8763 48.107 41.8426 44.2305 27.2092C40.4935 16.5701 31.6805 13.0831 30.7115 11.7419C29.6505 10.7882 28.635 9.11949 28.635 9.11949L29.3275 38.7132C29.3275 38.7432 27.897 47.7734 31.5425 48.8766" fill="white"/>
<path fill-rule="evenodd" clip-rule="evenodd" d="M31.542 49.5898C31.542 49.5898 48.107 42.4299 44.2305 27.5338C40.4935 16.7038 31.6805 13.1543 30.7115 11.789C29.6505 10.8181 28.635 9.11949 28.635 9.11949L29.3275 39.2443C29.3275 39.2749 27.897 48.4671 31.5425 49.5901" fill="#499D4A"/>
<path fill-rule="evenodd" clip-rule="evenodd" d="M27.6665 49.2635C27.6665 49.2635 12.1165 42.4088 13.0395 30.339C13.916 18.2688 24.8975 12.3381 27.02 11.2652C28.4045 10.3115 28.4505 9.95369 28.543 9C29.512 10.3412 29.3275 29.0575 29.4655 31.2626C29.8805 39.7564 28.7275 47.6546 27.6665 49.2635Z" fill="white"/>
<path fill-rule="evenodd" clip-rule="evenodd" d="M27.6665 49.4706C27.6665 49.4706 12.1165 42.5806 13.0395 30.4487C13.916 18.3165 24.8975 12.3552 27.02 11.2769C28.4045 10.3183 28.4505 9.95859 28.543 9C29.512 10.3481 29.3275 29.1606 29.4655 31.3771C29.8805 39.9145 28.7275 47.8534 27.6665 49.4706Z" fill="#499D4A"/>
</svg>
