<svg width="60" height="60" viewBox="0 0 60 60" fill="none" xmlns="http://www.w3.org/2000/svg">
<rect x="1.5" y="1.5" width="57" height="57" rx="1.5" stroke="#5654B3" stroke-width="3"/>
<path d="M30.9972 51.0004C30.3939 51.0004 29.7925 50.8604 29.2643 50.5888L23.7463 47.6938C22.9231 47.2854 23.3253 47.1404 23.596 47.0554C24.6954 46.7171 24.9172 46.6388 26.0919 46.0488C26.214 45.9871 26.3757 46.0104 26.5016 46.0771L30.7416 48.3088C30.8203 48.3458 30.9081 48.3652 30.9972 48.3652C31.0863 48.3652 31.1741 48.3458 31.2528 48.3088L47.7824 39.8488C47.8595 39.8076 47.9232 39.7494 47.9673 39.6799C48.0114 39.6104 48.0345 39.5319 48.0343 39.4521V22.5354C48.0341 22.4542 48.0103 22.3744 47.9652 22.3038C47.9201 22.2331 47.8552 22.174 47.7768 22.1321L31.2547 13.6788C31.1768 13.6402 31.0892 13.62 31 13.62C30.9108 13.62 30.8232 13.6402 30.7453 13.6788L14.227 22.1338C14.1482 22.1752 14.0829 22.2339 14.0371 22.3043C13.9914 22.3746 13.9668 22.4542 13.9657 22.5354V39.4521C13.9661 39.5321 13.9905 39.6105 14.0364 39.6794C14.0823 39.7482 14.1481 39.805 14.227 39.8438L18.7545 42.1638C21.211 43.2538 22.7164 41.9704 22.7164 40.6804V23.9788C22.7164 23.7421 22.9306 23.5571 23.1975 23.5571H25.2931C25.5543 23.5571 25.7724 23.7438 25.7724 23.9788V40.6804C25.7724 43.5888 23.9869 45.2554 20.8783 45.2554C19.9236 45.2554 19.1699 45.2554 17.0706 44.3371L12.7328 42.1254C12.2056 41.8531 11.7681 41.463 11.464 40.9939C11.16 40.5248 11 39.9932 11 39.4521V22.5354C11 21.4371 11.6634 20.4104 12.7328 19.8638L29.2625 11.3938C29.7949 11.1354 30.3921 11 30.9991 11C31.606 11 32.2032 11.1354 32.7357 11.3938L49.2634 19.8638C50.3347 20.4121 51 21.4371 51 22.5354V39.4521C50.9989 39.9934 50.838 40.5249 50.5334 40.9939C50.2287 41.463 49.7908 41.8531 49.2634 42.1254L32.7357 50.5888C32.2094 50.8604 31.6099 51.0004 30.9972 51.0004V51.0004ZM44.343 34.3221C44.343 31.1554 41.9299 30.3121 36.8497 29.7171C31.717 29.1154 31.1945 28.8038 31.1945 27.7388C31.1945 26.8588 31.6362 25.6838 35.4383 25.6838C38.8344 25.6838 40.0861 26.3321 40.6011 28.3621C40.6245 28.4559 40.6833 28.5398 40.7676 28.6001C40.852 28.6604 40.957 28.6934 41.0653 28.6938H43.2097C43.2752 28.6932 43.3399 28.6809 43.4 28.6577C43.46 28.6346 43.5142 28.6009 43.5593 28.5588C43.6047 28.515 43.6394 28.4634 43.661 28.4072C43.6827 28.3509 43.691 28.2913 43.6852 28.2321C43.3526 24.7354 40.7326 23.1054 35.4383 23.1054C30.7247 23.1054 27.913 24.8688 27.913 27.8271C27.913 31.0354 30.7096 31.9221 35.2334 32.3188C40.6462 32.7888 41.0653 33.4904 41.0653 34.4338C41.0653 36.0721 39.5824 36.7704 36.0998 36.7704C31.7264 36.7704 30.7641 35.7971 30.4409 33.8671C30.4229 33.7669 30.3651 33.6756 30.2779 33.6099C30.1907 33.5442 30.0798 33.5083 29.9654 33.5088H27.8285C27.7658 33.5083 27.7036 33.5189 27.6456 33.5399C27.5876 33.5609 27.5349 33.592 27.4905 33.6312C27.4461 33.6704 27.4109 33.7171 27.3869 33.7684C27.363 33.8198 27.3508 33.8749 27.3511 33.9304C27.3511 36.4004 28.8659 39.3438 36.0998 39.3438C41.3397 39.3454 44.343 37.5171 44.343 34.3221V34.3221Z" fill="#5654B3"/>
</svg>
