<svg width="60" height="60" viewBox="0 0 60 60" fill="none" xmlns="http://www.w3.org/2000/svg">
<rect x="1.5" y="1.5" width="57" height="57" rx="1.5" stroke="#989B00" stroke-width="3"/>
<rect width="40" height="40" transform="translate(10 10)" fill="white"/>
<path d="M30 33.0925C31.7259 33.0925 33.125 31.6934 33.125 29.9675C33.125 28.2416 31.7259 26.8425 30 26.8425C28.2741 26.8425 26.875 28.2416 26.875 29.9675C26.875 31.6934 28.2741 33.0925 30 33.0925Z" fill="#989B00"/>
<path d="M30 37.1325C26.2439 37.2234 22.4972 36.7171 18.9 35.6325C17.2383 35.1058 15.6884 34.2759 14.3288 33.185C13.8099 32.8123 13.3778 32.3318 13.0622 31.7765C12.7465 31.2211 12.5547 30.604 12.5 29.9675C12.5 27.9013 14.77 25.8763 18.5725 24.5513C22.2659 23.3772 26.1249 22.8082 30 22.8663C33.8234 22.8129 37.6307 23.3716 41.2775 24.5213C42.8779 25.0315 44.3752 25.8212 45.7 26.8538C46.21 27.2091 46.6356 27.6722 46.9466 28.2103C47.2577 28.7484 47.4466 29.3483 47.5 29.9675C47.5 32.115 44.9625 34.2913 40.875 35.6438C37.3474 36.693 33.6798 37.1951 30 37.1325ZM30 24.3613C26.2926 24.3117 22.601 24.8526 19.0637 25.9638C15.5638 27.185 13.995 28.855 13.995 29.9638C13.995 31.1238 15.6813 32.9475 19.3837 34.2138C22.8251 35.2461 26.4083 35.7266 30 35.6375C33.5205 35.7005 37.0299 35.2241 40.4062 34.225C44.25 32.9513 46 31.125 46 29.9675C45.9369 29.5703 45.7922 29.1905 45.5749 28.852C45.3576 28.5136 45.0724 28.2239 44.7375 28.0013C43.5522 27.0852 42.2146 26.3853 40.7862 25.9338C37.2975 24.8385 33.6562 24.3076 30 24.3613Z" fill="#989B00"/>
<path d="M22.9 45.5537C22.3169 45.5671 21.7406 45.4256 21.23 45.1437C19.44 44.1112 18.82 41.1337 19.5713 37.1775C20.3996 33.3913 21.8348 29.7641 23.8213 26.4362C25.6847 23.0976 28.0702 20.0786 30.8875 17.4937C32.129 16.3621 33.5611 15.4594 35.1175 14.8275C35.6805 14.5637 36.2945 14.4269 36.9163 14.4269C37.538 14.4269 38.1521 14.5637 38.715 14.8275C40.5763 15.9 41.1925 19.185 40.3238 23.4012C39.4699 26.9819 38.072 30.4105 36.1788 33.5675C34.3809 36.8667 32.0705 39.8594 29.3338 42.4337C28.0472 43.6097 26.5542 44.5374 24.93 45.17C24.2798 45.4113 23.5935 45.5411 22.9 45.5537ZM25.1163 27.1787C23.2214 30.3654 21.8458 33.8334 21.0413 37.4525C20.35 41.0962 21.0138 43.2875 21.9788 43.845C22.9788 44.4237 25.4062 43.875 28.3538 41.3C30.9663 38.8337 33.1715 35.969 34.8875 32.8125C36.7012 29.7944 38.0421 26.5164 38.8638 23.0925C39.6812 19.1237 38.975 16.6937 37.9725 16.1162C37.5968 15.9723 37.1952 15.9078 36.7933 15.927C36.3914 15.9461 35.9978 16.0484 35.6375 16.2275C34.2521 16.7992 32.9784 17.6108 31.875 18.625C29.1833 21.101 26.9046 23.9911 25.125 27.1862L25.1163 27.1787Z" fill="#989B00"/>
<path d="M37.0962 45.57C35.4025 45.57 33.2512 44.545 31.0112 42.6187C28.1446 40.0103 25.7187 36.9555 23.8275 33.5725C21.8659 30.2904 20.4421 26.7157 19.61 22.9837C19.2491 21.3418 19.1823 19.649 19.4125 17.9837C19.4657 17.366 19.6538 16.7675 19.9635 16.2303C20.2732 15.6932 20.697 15.2305 21.205 14.875C23.0637 13.7987 26.2175 14.905 29.4362 17.7625C32.112 20.2902 34.3842 23.2134 36.1737 26.43C38.1341 29.6354 39.5729 33.1319 40.4362 36.7887C40.8126 38.4909 40.8707 40.248 40.6075 41.9712C40.5449 42.6067 40.3456 43.2212 40.0232 43.7725C39.7009 44.3237 39.2631 44.7988 38.74 45.165C38.2377 45.4434 37.6704 45.5832 37.0962 45.57ZM25.1212 32.82C26.9355 36.053 29.2529 38.9767 31.9862 41.4812C34.7975 43.9 37.0275 44.42 37.9862 43.8562C38.9862 43.275 39.7237 40.9025 38.9637 37.0637C38.1311 33.5724 36.7511 30.2349 34.875 27.175C33.1673 24.0964 30.9984 21.2973 28.4437 18.875C25.4137 16.185 22.9562 15.5837 21.955 16.1637C21.6429 16.4173 21.3868 16.7329 21.2029 17.0905C21.0189 17.448 20.9111 17.8399 20.8862 18.2412C20.6875 19.7263 20.7522 21.2349 21.0775 22.6975C21.8779 26.2664 23.2434 29.6845 25.1225 32.8225L25.1212 32.82Z" fill="#989B00"/>
</svg>
